<svg width="93px" height="38px" viewBox="0 0 93 38" version="1.1" xmlns="http://www.w3.org/2000/svg" xmlns:xlink="http://www.w3.org/1999/xlink">
    <title>volc-logo</title>
    <g id="logo_white_27" stroke="none" stroke-width="1" fill="none" fill-rule="evenodd">
        <g id="" fill-rule="nonzero">
            <path d="M19.2811765,13.1505882 L16.2,26.4917647 C16.1364706,26.7141176 16.3270588,26.9047059 16.5176471,26.9047059 L22.68,26.9047059 C22.9023529,26.9047059 23.0611765,26.7141176 22.9976471,26.4917647 L19.9164706,13.1505882 C19.8529412,12.8011765 19.3447059,12.8011765 19.2811765,13.1505882 Z" id="路径" fill="#37E2E2"></path>
            <path d="M2.25529412,18.2329412 L0.317647059,26.5235294 C0.254117647,26.7458824 0.444705882,26.9364706 0.635294118,26.9364706 L4.44705882,26.9364706 C4.66941176,26.9364706 4.82823529,26.7458824 4.76470588,26.5235294 L2.85882353,18.2329412 C2.82705882,17.8835294 2.31882353,17.8835294 2.25529412,18.2329412 Z" id="路径" fill="#37E2E2"></path>
            <path d="M6.44823529,8.1 L2.19176471,26.5235294 C2.12823529,26.7458824 2.31882353,26.9364706 2.50941176,26.9364706 L10.9905882,26.9364706 C11.2129412,26.9364706 11.3717647,26.7458824 11.3082353,26.5235294 L7.05176471,8.1 C7.02,7.75058824 6.51176471,7.75058824 6.44823529,8.1 Z" id="路径" fill="#1678FF"></path>
            <path d="M13.5635294,0.508235294 L7.56,26.5235294 C7.49647059,26.7458824 7.68705882,26.9364706 7.87764706,26.9364706 L19.8529412,26.9364706 C20.0752941,26.9364706 20.2341176,26.7458824 20.1705882,26.5235294 L14.1988235,0.508235294 C14.1352941,0.158823529 13.6270588,0.158823529 13.5635294,0.508235294 Z" id="路径" fill="#1678FF"></path>
            <path d="M9.59294118,10.6094118 L5.94,26.4917647 C5.87647059,26.7141176 6.06705882,26.9047059 6.25764706,26.9047059 L13.5635294,26.9047059 C13.7858824,26.9047059 13.9447059,26.7141176 13.8811765,26.4917647 L10.2282353,10.6094118 C10.1647059,10.2917647 9.65647059,10.2917647 9.59294118,10.6094118 Z" id="路径" fill="#37E2E2"></path>
            <path d="M74.7105882,11.6258824 C74.8058824,11.6258824 74.9011765,11.6894118 74.9011765,11.8164706 L74.9011765,26.7458824 C74.9011765,26.8729412 74.8058824,26.9364706 74.7105882,26.9364706 L73.0588235,26.9364706 C72.9635294,26.9364706 72.8682353,26.8729412 72.8682353,26.7458824 L72.8682353,11.8164706 C72.8682353,11.7211765 72.9317647,11.6258824 73.0588235,11.6258824 L74.7105882,11.6258824 Z M92.2447059,19.7894118 C92.3082353,19.7894118 92.34,19.8211765 92.34,19.8847059 L92.34,20.9647059 C92.34,21.0282353 92.3082353,21.06 92.2447059,21.06 L86.5265882,21.0597647 L86.5265882,21.6627647 L92.0541176,21.6635294 C92.1176471,21.6635294 92.1494118,21.6952941 92.1494118,21.7588235 L92.1494118,22.8388235 C92.1494118,22.9023529 92.1176471,22.9341176 92.0541176,22.9341176 L86.5265882,22.9337647 L86.5265882,23.5367647 L92.7529412,23.5376471 C92.8164706,23.5376471 92.8482353,23.5694118 92.8482353,23.6329412 L92.8482353,24.7129412 C92.8482353,24.7764706 92.8164706,24.8082353 92.7529412,24.8082353 L86.5265882,24.8077647 L86.5270588,26.2376471 C86.5270588,26.5870588 86.2601471,26.8830882 85.9220588,26.93 L85.8282353,26.9364706 L82.6835294,26.9364706 C82.62,26.9364706 82.5882353,26.8729412 82.5882353,26.8094118 L82.5882353,26.8094118 L82.8741176,25.6976471 C82.8741176,25.6341176 82.9376471,25.5705882 83.0329412,25.5705882 L83.0329412,25.5705882 L84.24,25.5705882 C84.3352941,25.5705882 84.3988235,25.5070588 84.3988235,25.4117647 L84.3988235,25.4117647 L84.3985882,24.8077647 L78.0776471,24.8082353 C78.0458824,24.8082353 77.9823529,24.7764706 77.9823529,24.7129412 L77.9823529,23.6329412 C77.9823529,23.5694118 78.0141176,23.5376471 78.0776471,23.5376471 L84.3985882,23.5367647 L84.3985882,22.9337647 L78.8082353,22.9341176 C78.7447059,22.9341176 78.7129412,22.9023529 78.7129412,22.8388235 L78.7129412,21.7588235 C78.7129412,21.6952941 78.7447059,21.6635294 78.8082353,21.6635294 L84.3985882,21.6627647 L84.3985882,21.0597647 L78.5858824,21.06 C78.5223529,21.06 78.4905882,20.9964706 78.4905882,20.9647059 L78.4905882,19.8847059 C78.4905882,19.8211765 78.5223529,19.7894118 78.5858824,19.7894118 L92.2447059,19.7894118 Z M36.8470588,11.3717647 C36.9423529,11.3717647 37.0058824,11.4352941 37.0058824,11.5305882 L37.0058824,11.5305882 L37.0058824,17.3435294 C37.0058824,17.6307761 36.9953412,17.9095899 36.9752722,18.1801253 C37.3458,22.1462873 40.8324408,24.7545568 42.9776471,24.9035294 C43.0729412,24.9035294 43.1364706,24.9988235 43.1364706,25.0623529 L43.1364706,26.6823529 C43.1364706,26.7776471 43.0411765,26.8729412 42.9458824,26.8411765 C41.2305882,26.7458824 39.2929412,25.8247059 37.8317647,24.3952941 C37.2094031,23.788112 36.5217561,22.9560582 35.9733454,21.8679345 C35.4253027,22.9560582 34.7376558,23.788112 34.1152941,24.3952941 C32.6541176,25.8247059 30.7164706,26.7458824 29.0011765,26.8411765 C28.9058824,26.8729412 28.8105882,26.7776471 28.8105882,26.6823529 L28.8105882,26.6823529 L28.8105882,25.0623529 C28.8105882,24.9988235 28.8741176,24.9035294 28.9694118,24.9035294 C31.114618,24.7545568 34.6012588,22.1462873 34.9730909,18.1796754 C34.9517177,17.9095899 34.9411765,17.6307761 34.9411765,17.3435294 L34.9411765,11.5305882 C34.9411765,11.4352941 35.0047059,11.3717647 35.1,11.3717647 Z M53.6188235,11.6894118 C53.7141176,11.6894118 53.7776471,11.7529412 53.7776471,11.8482353 L53.7775882,24.9027647 L57.4615882,24.9027647 L57.4623529,13.5952941 C57.4623529,13.5 57.5258824,13.4047059 57.6529412,13.4047059 L59.2411765,13.4047059 C59.3364706,13.4047059 59.4317647,13.4682353 59.4317647,13.5952941 L59.4317647,26.6823529 C59.4,26.7458824 59.3364706,26.8411765 59.2411765,26.8411765 L46.4082353,26.8411765 C46.3129412,26.8411765 46.2176471,26.7776471 46.2176471,26.6505882 L46.2176471,13.5952941 C46.2176471,13.5 46.2811765,13.4047059 46.4082353,13.4047059 L47.9964706,13.4047059 C48.0917647,13.4047059 48.1870588,13.4682353 48.1870588,13.5952941 L48.1865882,24.9027647 L51.8715882,24.9027647 L51.8717647,11.8482353 C51.8717647,11.7529412 51.9352941,11.6894118 52.0305882,11.6894118 L53.6188235,11.6894118 Z M69.8823529,11.9752941 C70.0094118,11.9752941 70.0729412,12.0705882 70.0729412,12.1658824 L70.0729412,12.1658824 L70.0729412,17.5976471 C70.0729412,17.7247059 69.9776471,17.7882353 69.8823529,17.7882353 L69.8823529,17.7882353 L64.5458824,17.7882353 C64.4823529,17.7882353 64.4505882,17.82 64.4505882,17.8835294 L64.4505882,17.8835294 L64.4505882,19.5035294 C64.4505882,19.5670588 64.4823529,19.5988235 64.5458824,19.5988235 L64.5458824,19.5988235 L69.9776471,19.5988235 C70.0729412,19.5988235 70.1364706,19.6623529 70.1364706,19.7576471 L70.1364706,19.7576471 L70.1364706,26.2058824 C70.1364706,26.4917647 69.9141176,26.7141176 69.6282353,26.7141176 L69.6282353,26.7141176 L63.5611765,26.7141176 C63.4976471,26.7141176 63.4658824,26.6823529 63.4658824,26.6188235 L63.4658824,26.6188235 L63.8470588,24.9352941 C63.8470588,24.8717647 63.9105882,24.8082353 64.0058824,24.8082353 L64.0058824,24.8082353 L68.0082353,24.8082353 C68.1035294,24.8082353 68.1670588,24.7447059 68.1670588,24.6494118 L68.1670588,24.6494118 L68.1670588,21.6952941 C68.1670588,21.6317647 68.1352941,21.6 68.0717647,21.6 L68.0717647,21.6 L62.64,21.6 C62.5129412,21.6 62.4494118,21.5047059 62.4494118,21.4094118 L62.4494118,21.4094118 L62.4494118,16.1047059 C62.4494118,15.9776471 62.5447059,15.9141176 62.64,15.9141176 L62.64,15.9141176 L68.0717647,15.9141176 C68.1352941,15.9141176 68.1670588,15.8823529 68.1670588,15.8188235 L68.1670588,15.8188235 L68.1670588,14.04 C68.1670588,13.9764706 68.1352941,13.9447059 68.0717647,13.9447059 L68.0717647,13.9447059 L62.64,13.9447059 C62.5129412,13.9447059 62.4494118,13.8494118 62.4494118,13.7541176 L62.4494118,13.7541176 L62.4494118,12.1658824 C62.4494118,12.0705882 62.5129412,12.0070588 62.6082353,11.9752941 L62.6082353,11.9752941 Z M80.2058824,13.7858824 C80.2694118,13.7858824 80.3011765,13.8176471 80.3011765,13.8811765 C80.2914676,13.9904018 80.2769364,14.0966596 80.2577955,14.1998223 L85.32,14.1988235 C85.4152941,14.1988235 85.5105882,14.2623529 85.4788235,14.3576471 L85.4788235,14.3576471 L85.4788235,18.7411765 C85.4788235,19.1223529 85.1611765,19.44 84.78,19.44 L84.78,19.44 L82.9694118,19.44 C82.9058824,19.44 82.8741176,19.4082353 82.8741176,19.3447059 L82.8741176,19.3447059 L83.16,18.0741176 C83.1917647,18.0423529 83.2235294,18.0105882 83.2552941,18.0105882 L83.2552941,18.0105882 L83.7635294,18.0105882 C83.8270588,18.0105882 83.8588235,17.9788235 83.8588235,17.9152941 L83.8588235,17.9152941 L83.8588235,15.5329412 C83.8588235,15.4694118 83.8270588,15.4376471 83.7635294,15.4376471 L83.7635294,15.4376471 L79.7024965,15.4385269 C79.5758089,15.5943512 79.4318231,15.7324554 79.2727708,15.8515006 L82.5882353,15.8505882 C82.6835294,15.8505882 82.7470588,15.9141176 82.7470588,16.0094118 L82.7470588,16.0094118 L82.7470588,18.4552941 C82.7470588,18.5505882 82.6835294,18.6141176 82.5882353,18.6141176 L82.5882353,18.6141176 L78.6811765,18.6141176 C78.5858824,18.6141176 78.5223529,18.5505882 78.5223529,18.4552941 L78.5223529,18.4552941 L78.5224268,16.2357033 C78.3317538,16.2967873 78.1298768,16.338233 77.9188235,16.3588235 C77.8552941,16.3588235 77.8235294,16.3270588 77.8235294,16.2635294 L77.8235294,16.2635294 L77.8235294,14.8023529 C77.8235294,14.7388235 77.8870588,14.7070588 77.9188235,14.7070588 C78.1729412,14.6752941 78.5858824,14.58 78.6811765,13.8494118 C78.6811765,13.8176471 78.7447059,13.7858824 78.7764706,13.7858824 L78.7764706,13.7858824 Z M88.8776471,11.6258824 C88.9411765,11.6258824 88.9729412,11.6894118 88.9729412,11.7529412 C88.9651116,11.960426 88.9394303,12.162121 88.897384,12.3564804 L92.5305882,12.3564706 C92.5941176,12.3564706 92.6258824,12.3882353 92.6258824,12.4517647 L92.6258824,13.8176471 C92.6258824,13.8811765 92.5941176,13.9129412 92.5305882,13.9129412 L91.9685475,13.9122801 C91.9853201,14.7133081 91.910962,16.1920119 90.9109014,17.4605492 C91.530897,17.6655264 92.2009342,17.7564706 92.8482353,17.7564706 C92.9117647,17.7564706 92.9435294,17.7882353 92.9435294,17.8517647 L92.9435294,17.8517647 L92.9435294,19.3129412 C92.9435294,19.3764706 92.9117647,19.4082353 92.8482353,19.4082353 C91.5574201,19.4082353 90.4050466,19.1412406 89.4535373,18.648216 C88.5455912,19.1275685 87.4121577,19.3871273 86.0823529,19.4082353 C86.0188235,19.4082353 85.9870588,19.3764706 85.9870588,19.3129412 L85.9870588,19.3129412 L85.9552941,17.7882353 C85.9552941,17.7247059 85.9870588,17.6929412 86.0505882,17.6929412 C86.7541672,17.6785824 87.366877,17.5928264 87.8916516,17.4356732 C87.2916946,16.7501963 86.8858762,15.905141 86.7176471,14.9294118 C86.7176471,14.8976471 86.7494118,14.8341176 86.8129412,14.8341176 L86.8129412,14.8341176 L88.3058824,14.8341176 C88.3376471,14.8341176 88.3694118,14.8341176 88.4011765,14.8976471 C88.5727472,15.6053761 88.9216949,16.1610677 89.3808084,16.5867183 L89.4176471,16.5494118 C90.2364706,15.7023529 90.2772549,14.5541176 90.2762092,13.9078431 L88.0716209,13.9139318 C87.553575,14.4475968 86.8482932,14.7871938 86.0505882,14.8341176 C85.9870588,14.8341176 85.9552941,14.8023529 85.9552941,14.7388235 L85.9552941,14.7388235 L85.9552941,13.2141176 C85.9552941,13.1505882 85.9870588,13.1188235 86.0188235,13.1188235 C86.6858824,13.0235294 87.2258824,12.4517647 87.2576471,11.7211765 C87.2576471,11.6576471 87.3211765,11.6258824 87.3529412,11.6258824 L87.3529412,11.6258824 Z M31.4152941,13.5635294 C31.5423529,13.5952941 31.6058824,13.6588235 31.6058824,13.7541176 C31.6376471,14.5164706 31.7329412,16.2635294 32.1141176,19.0270588 C32.1141176,19.1223529 32.0505882,19.2176471 31.9235294,19.2176471 L30.0811765,19.2176471 C29.9858824,19.2176471 29.9223529,19.1541176 29.8905882,19.0588235 C29.5411765,16.2952941 29.4458824,14.5164706 29.4141176,13.7541176 C29.4141176,13.6588235 29.4776471,13.5635294 29.6047059,13.5635294 L31.4152941,13.5635294 Z M42.3423529,13.5635294 C42.4694118,13.5635294 42.5329412,13.6588235 42.5329412,13.7541176 C42.5011765,14.5164706 42.4058824,16.2635294 42.0564706,19.0270588 C42.0247059,19.1223529 41.9611765,19.1858824 41.8658824,19.1858824 L41.8658824,19.1858824 L40.0552941,19.1858824 C39.9282353,19.1858824 39.8647059,19.0905882 39.8647059,18.9952941 C40.2141176,16.2635294 40.3094118,14.5164706 40.3411765,13.7541176 C40.3729412,13.6588235 40.4364706,13.5952941 40.5317647,13.5635294 L40.5317647,13.5635294 Z M81.3176471,16.8035294 L79.9835294,16.8035294 C79.92,16.8035294 79.8882353,16.8352941 79.8882353,16.8988235 L79.8882353,16.8988235 L79.8882353,17.5658824 C79.8882353,17.6294118 79.92,17.6611765 79.9835294,17.6611765 L79.9835294,17.6611765 L81.3176471,17.6611765 C81.3494118,17.6611765 81.3811765,17.6294118 81.4129412,17.5658824 L81.4129412,17.5658824 L81.4129412,16.8988235 C81.4129412,16.8352941 81.3811765,16.8035294 81.3176471,16.8035294 L81.3176471,16.8035294 Z M80.9682353,11.6576471 C81.0317647,11.6576471 81.0635294,11.6894118 81.0635294,11.7529412 L81.0625882,11.9747647 L82.8105882,11.9747647 L82.8105882,11.7529412 C82.8105882,11.6894118 82.8423529,11.6576471 82.9058824,11.6576471 L84.5894118,11.6576471 C84.6529412,11.6576471 84.6847059,11.6894118 84.6847059,11.7529412 L84.6845882,11.9747647 L85.7329412,11.9752941 C85.7964706,11.9752941 85.8282353,12.0070588 85.8282353,12.0705882 L85.8282353,13.3411765 C85.8282353,13.4047059 85.7964706,13.4364706 85.7329412,13.4364706 L84.6845882,13.4357647 L84.6847059,13.5 C84.6847059,13.5317647 84.6529412,13.5952941 84.5894118,13.5952941 L82.9058824,13.5952941 C82.8423529,13.5952941 82.8105882,13.5635294 82.8105882,13.5 L82.8105882,13.4357647 L81.0625882,13.4357647 L81.0635294,13.5 C81.0635294,13.5317647 81.0317647,13.5952941 80.9682353,13.5952941 L79.2847059,13.5952941 C79.2211765,13.5952941 79.1894118,13.5635294 79.1894118,13.5 L79.1885882,13.4357647 L78.2047059,13.4364706 C78.1411765,13.4047059 78.1094118,13.3729412 78.1094118,13.3411765 L78.1094118,12.0705882 C78.1094118,12.0070588 78.1411765,11.9752941 78.2047059,11.9752941 L79.1885882,11.9747647 L79.1894118,11.7529412 C79.1894118,11.6894118 79.2211765,11.6576471 79.2847059,11.6576471 L80.9682353,11.6576471 Z" id="形状结合" fill="#FFFFFF"></path>
        </g>
    </g>
</svg>